<svg width="500" height="255" viewBox="0 0 500 255" fill="none" xmlns="http://www.w3.org/2000/svg">
<path d="M499.366 151.097L487.153 115.272L466.76 122.219L425.107 0L378.67 15.8213L378.809 16.237L363.831 80.8903L342.521 172.867L354.952 200.315L398.801 185.373L414.763 179.932L432.533 173.874L447.041 216.453L493.479 200.631L478.97 158.052L499.366 151.097ZM414.928 139.886L404.394 143.476L384.22 150.352L397.989 81.9861L399.284 76.3134L420.32 138.046L414.928 139.886Z" fill="#DEBA20"/>
<path opacity="0.25" d="M478.97 158.051L493.479 200.63L463.9 187.978L416.626 17.6463L399.284 76.3148L391.254 109.545L363.832 80.8877L378.81 16.2357L378.67 15.82L425.106 0L466.758 122.221L487.151 115.272L499.365 151.097L478.97 158.051Z" fill="#010101"/>
<path opacity="0.25" d="M414.763 179.93L398.801 185.372L401.147 152.477V146.48L404.394 143.476L406.483 141.546L414.927 139.886C414.928 139.886 414.405 164.048 414.763 179.93Z" fill="#DEBA20"/>
<path d="M319.691 157.026L312.693 121.287C307.515 94.8534 297.531 75.5708 282.742 63.4299C267.946 51.297 249.672 47.3589 227.915 51.621C206.158 55.8832 190.728 66.3732 181.635 83.0844C172.537 99.8035 170.584 121.425 175.78 147.952L182.802 183.826C187.962 210.168 197.934 229.408 212.728 241.541C218.975 246.663 225.851 250.327 233.355 252.521C243.619 255.532 255.063 255.793 267.683 253.326C274.223 252.049 280.196 250.199 285.587 247.78C298.067 242.187 307.482 233.56 313.834 221.885C322.933 205.167 324.881 183.544 319.691 157.026ZM276.007 204.996C273.613 212.325 268.552 216.745 260.82 218.259C252.815 219.827 246.311 217.58 241.293 211.512C237.873 207.377 234.949 201.241 232.523 193.102C232.523 193.095 232.523 193.088 232.523 193.088C232.518 193.077 232.518 193.063 232.512 193.046C231.388 189.273 230.374 185.065 229.47 180.431L219.647 130.257C217.345 117.079 217.338 106.907 219.622 99.7371C221.906 92.5703 226.961 88.2151 234.783 86.6891C240.749 85.5163 245.896 86.5244 250.219 89.7001H250.226C251.697 90.7865 253.076 92.1173 254.359 93.7059C259.409 99.9523 263.316 110.138 266.076 124.249L275.583 172.799C278.261 186.934 278.402 197.661 276.007 204.996Z" fill="#DEBA20"/>
<path opacity="0.25" d="M279.518 211.7C281.534 214.803 284.213 235.893 285.588 247.782C280.196 250.2 274.223 252.051 267.684 253.327C255.064 255.793 243.62 255.532 233.356 252.522C233.776 251.575 234.161 250.586 234.49 249.572C240.896 230.001 232.891 194.69 232.524 193.102C234.948 201.241 237.873 207.377 241.294 211.512C246.312 217.58 252.816 219.827 260.821 218.259C268.551 216.743 273.614 212.323 276.008 204.996C278.402 197.663 278.26 186.934 275.587 172.798L266.08 124.247C263.32 110.137 259.411 99.951 254.362 93.7045C253.079 92.1174 251.701 90.7865 250.229 89.6987C265.672 92.727 278.214 140.539 283.44 163.603C288.66 186.671 289.1 197.339 279.518 211.7Z" fill="#704C00"/>
<path d="M152.947 15.0693L105.966 6.99658L105.893 7.41762L2.14237 124.229L0 153.429L14.881 155.987L40.6371 160.414L75.2097 166.356L78.4956 166.918L76.0225 181.322L74.875 187.985L71.095 209.997L101.674 215.254L118.077 218.07L125.476 174.99L146.115 178.531L152.343 142.279L131.704 138.738L152.947 15.0693ZM94.2984 74.9278L84.7168 130.665L73.256 128.693L48.1891 124.389L62.0687 107.823L65.2444 104.031L91.7084 72.4441L95.4512 68.2072L94.2984 74.9278Z" fill="#DEBA20"/>
<path opacity="0.25" d="M75.2098 166.356L40.6372 160.414C44.7094 146.962 49.791 128.423 48.1906 124.388L73.2574 128.692C74.8632 131.368 76.1329 135.048 76.4756 140.099C77.0852 149.039 75.753 158.168 75.2098 166.356Z" fill="#DEBA20"/>
<path opacity="0.25" d="M131.704 138.738L152.343 142.279L146.115 178.531L125.476 174.991L118.076 218.07L101.674 215.253L130.502 35.3786L152.947 15.0693L131.704 138.738Z" fill="#010101"/>
</svg>
