<svg width="24" height="24" viewBox="0 0 24 24" fill="none" xmlns="http://www.w3.org/2000/svg">
<path d="M7.49071 2.92969C5.43872 2.92969 2.99072 5.37769 2.99072 7.42969C2.99072 9.61169 5.02972 13.4067 7.27172 15.6487C7.47772 15.8537 8.06672 16.4427 8.27172 16.6487C10.5137 18.8907 14.3087 20.9297 16.4907 20.9297C18.5427 20.9297 20.9907 18.4817 20.9907 16.4297C20.9907 14.3777 18.5427 11.9297 16.4907 11.9297C16.0807 11.9297 15.6587 12.0927 14.8657 12.4607C14.7927 12.4947 14.1827 12.7937 14.0217 12.8677C12.9057 12.5607 11.3937 11.0277 11.0527 9.86768C11.1297 9.69768 11.4307 9.11669 11.4597 9.05469C11.8427 8.24269 11.9907 7.84469 11.9907 7.42969C11.9907 5.37769 9.54271 2.92969 7.49071 2.92969ZM7.49071 4.92969C8.43871 4.92969 9.99071 6.48169 9.99071 7.42969C9.99071 7.40469 9.85672 7.76669 9.64672 8.21069C9.61872 8.27069 9.28671 8.91369 9.20971 9.08569C8.97371 9.61369 8.94472 9.77968 9.02172 10.1487C9.44172 12.1497 11.8207 14.5407 13.8027 14.8987C14.1597 14.9627 14.2477 14.9307 14.8027 14.6797C14.9587 14.6097 15.6397 14.3057 15.7097 14.2737C16.1497 14.0687 16.5117 13.9297 16.4907 13.9297C17.4387 13.9297 18.9907 15.4817 18.9907 16.4297C18.9907 17.3777 17.4387 18.9297 16.4907 18.9297C14.9287 18.9297 11.6117 17.1137 9.7097 15.2107C9.50371 15.0057 8.91471 14.4167 8.70971 14.2107C6.80671 12.3087 4.99072 8.99169 4.99072 7.42969C4.99072 6.48169 6.54272 4.92969 7.49071 4.92969Z" fill="#AFAFAF"/>
</svg>
