<svg width="41" height="41" viewBox="0 0 41 41" fill="none" xmlns="http://www.w3.org/2000/svg">
<path d="M27.0808 11.5H14.9192C13.5462 11.5 12.5 12.5462 12.5 13.9192V26.0808C12.5 27.4538 13.5462 28.5 14.9192 28.5H27.0808C28.4538 28.5 29.5 27.4538 29.5 26.0808V13.9192C29.5 12.5462 28.4538 11.5 27.0808 11.5ZM21 25.1C23.8115 25.1 26.1 22.8769 26.1 20.1962C26.1 19.7385 26.0346 19.2154 25.9038 18.8231H27.3423V25.7538C27.3423 26.0808 27.0808 26.4077 26.6885 26.4077H15.3115C14.9846 26.4077 14.6577 26.1462 14.6577 25.7538V18.7577H16.1615C16.0308 19.2154 15.9654 19.6731 15.9654 20.1308C15.9 22.8769 18.1885 25.1 21 25.1ZM21 23.1385C19.1692 23.1385 17.7308 21.7 17.7308 19.9346C17.7308 18.1692 19.1692 16.7308 21 16.7308C22.8308 16.7308 24.2692 18.1692 24.2692 19.9346C24.2692 21.7654 22.8308 23.1385 21 23.1385ZM27.2769 16.1423C27.2769 16.5346 26.95 16.8615 26.5577 16.8615H24.7269C24.3346 16.8615 24.0077 16.5346 24.0077 16.1423V14.3769C24.0077 13.9846 24.3346 13.6577 24.7269 13.6577H26.5577C26.95 13.6577 27.2769 13.9846 27.2769 14.3769V16.1423Z" fill="white"/>
<circle cx="20.5" cy="20.5" r="20" stroke="#F5F5F5"/>
</svg>
