<svg width="24" height="24" viewBox="0 0 24 24" fill="none" xmlns="http://www.w3.org/2000/svg">
<path d="M11.9975 2.01416C7.57925 2.01416 3.99756 5.59615 3.99756 10.0141C3.99756 13.4811 6.24536 17.4261 9.27875 20.7021C9.37675 20.8071 9.45605 20.8891 9.56005 20.9831C10.418 21.7521 11.3081 22.0241 11.9975 22.0141C12.0062 22.0141 12.0217 22.0141 12.0287 22.0141C12.7462 22.0141 13.758 21.6911 14.7163 20.7331C17.6263 17.8231 19.9975 13.5321 19.9975 10.0141C19.9975 5.59615 16.4158 2.01416 11.9975 2.01416ZM11.9975 4.01416C15.3112 4.01416 17.9975 6.70015 17.9975 10.0141C17.9975 12.9001 15.8498 16.7241 13.2787 19.2951C12.737 19.8371 12.2525 20.0141 11.9975 20.0141C11.9763 20.0141 11.9612 20.0141 11.9663 20.0141C11.7389 20.0171 11.342 19.9071 10.9037 19.5141C10.8457 19.4621 10.7723 19.3871 10.7163 19.3261C7.99555 16.3891 5.99756 12.8471 5.99756 10.0141C5.99756 6.70015 8.68385 4.01416 11.9975 4.01416ZM11.9975 7.01415C10.3406 7.01415 8.99755 8.35715 8.99755 10.0141C8.99755 11.6711 10.3406 13.0141 11.9975 13.0141C13.6544 13.0141 14.9975 11.6711 14.9975 10.0141C14.9975 8.35715 13.6544 7.01415 11.9975 7.01415ZM11.9975 9.01414C12.5498 9.01414 12.9975 9.46214 12.9975 10.0141C12.9975 10.5661 12.5498 11.0141 11.9975 11.0141C11.4452 11.0141 10.9975 10.5661 10.9975 10.0141C10.9975 9.46214 11.4452 9.01414 11.9975 9.01414Z" fill="#C3C3C3"/>
</svg>
