<svg width="185" height="50" viewBox="0 0 185 50" fill="none" xmlns="http://www.w3.org/2000/svg">
<path d="M16.8726 44.6007C21.9336 51.6059 49.6552 51.991 56.5855 44.6007C48.3718 48.6532 23.9871 48.1408 16.8726 44.6007Z" fill="#FCD83E"/>
<path d="M56.2935 42.2545C51.837 38.1303 44.3933 37.4885 41.6919 38.3044C45.9124 38.7537 52.69 39.7987 56.2935 42.2545Z" fill="#FCD83E"/>
<path d="M17.2201 42.2545C21.6766 38.1303 29.1204 37.4885 31.8217 38.3044C27.6013 38.7537 20.8237 39.7987 17.2201 42.2545Z" fill="#FCD83E"/>
<path d="M51.2262 22.519C52.8794 1.85325 22.1663 0.013092 22.1663 22.519C22.1663 29.9164 29.5509 34.7584 36.7304 42.0063L41.9954 37.1515V20.2626L32.5594 28.4678V24.0233L29.209 26.69C26.474 22.519 28.5573 12.9488 36.8992 12.9488C42.3495 12.9488 46.3714 15.955 46.0979 24.0233L50.1321 27.5789C50.7475 25.8695 51.0894 24.2284 51.2262 22.519Z" fill="#062A3B"/>
<path d="M50.132 27.5105C49.1064 29.6985 43.9098 34.9635 42.0636 37.1515V20.2626L50.132 27.5105Z" fill="#F5F5F5"/>
<path d="M35.1576 26.2113L32.5593 24.0233V28.4677L35.1576 26.2113Z" fill="#F5F5F5"/>
<path d="M36.8672 12.8096C44.8673 12.8096 46.4398 19.9891 46.098 23.8866L41.9954 20.2626L35.1578 26.2114L32.5595 24.0233L29.209 26.69C25.9954 20.9464 29.4826 12.8096 36.8672 12.8096Z" fill="#FCD83E"/>
<path d="M19.926 32H14.8259L7.14609 21.266V32H2.66867V10.8286H7.14609V21.0881L14.737 10.8286H19.5109L11.8014 20.9992L19.926 32Z" fill="#F5F5F5"/>
<path d="M73.9853 32H69.5078V23.8161C68.2625 24.251 67.1159 24.5772 66.0682 24.7946C65.0403 25.012 64.0025 25.1208 62.9548 25.1208C60.978 25.1208 59.4262 24.6463 58.2994 23.6975C57.1924 22.7289 56.6389 21.355 56.6389 19.5759V10.8286H61.1164V18.3008C61.1164 19.3288 61.3536 20.0997 61.828 20.6137C62.3024 21.1277 63.103 21.3846 64.2298 21.3846C65.0601 21.3846 65.8903 21.2957 66.7206 21.1178C67.5508 20.9399 68.4799 20.673 69.5078 20.3172V10.8286H73.9853V32ZM92.3854 32H80.1985V10.8286H92.3854V14.5054H84.6759V19.1608H91.8517V22.8376H84.6759V28.2935H92.3854V32ZM104.263 10.8286C106.141 10.8286 107.713 11.0065 108.978 11.3623C110.263 11.6984 111.221 12.2618 111.854 13.0525C112.506 13.8234 112.832 14.8711 112.832 16.1956C112.832 16.9863 112.704 17.7078 112.447 18.3602C112.19 19.0125 111.814 19.5462 111.32 19.9614C110.846 20.3765 110.263 20.6433 109.571 20.762V20.9102C110.282 21.0486 110.925 21.2957 111.498 21.6515C112.071 22.0073 112.526 22.5213 112.862 23.1934C113.198 23.8655 113.366 24.7551 113.366 25.8621C113.366 27.147 113.05 28.254 112.417 29.1831C111.805 30.0924 110.915 30.7942 109.749 31.2884C108.582 31.7628 107.199 32 105.597 32H97.6803V10.8286H104.263ZM104.767 19.2201C106.072 19.2201 106.971 19.0125 107.465 18.5974C107.979 18.1822 108.236 17.5793 108.236 16.7886C108.236 15.9781 107.94 15.395 107.347 15.0391C106.754 14.6833 105.815 14.5054 104.53 14.5054H102.158V19.2201H104.767ZM102.158 22.7783V28.2935H105.093C106.438 28.2935 107.376 28.0365 107.91 27.5226C108.444 26.9888 108.711 26.2871 108.711 25.4173C108.711 24.8836 108.592 24.419 108.355 24.0237C108.138 23.6283 107.752 23.3219 107.199 23.1044C106.645 22.887 105.894 22.7783 104.945 22.7783H102.158ZM135.839 32H131.361V22.8672H122.97V32H118.492V10.8286H122.97V19.1311H131.361V10.8286H135.839V32ZM142.055 10.8286H146.088V21.0585C146.088 21.5527 146.078 22.1062 146.058 22.719C146.038 23.3318 146.018 23.9347 145.999 24.5277C145.979 25.101 145.959 25.6051 145.939 26.04C145.92 26.4551 145.9 26.7417 145.88 26.8999H145.969L155.754 10.8286H161.121V32H157.118V21.8294C157.118 21.2957 157.128 20.7125 157.148 20.08C157.168 19.4276 157.187 18.8049 157.207 18.2119C157.247 17.6189 157.276 17.1049 157.296 16.67C157.336 16.2153 157.365 15.9188 157.385 15.7804H157.266L147.452 32H142.055V10.8286ZM184.613 32H179.512L171.833 21.266V32H167.355V10.8286H171.833V21.0881L179.424 10.8286H184.197L176.488 20.9992L184.613 32Z" fill="#F5F5F5"/>
</svg>
