<svg width="22" height="22" viewBox="0 0 22 22" fill="none" xmlns="http://www.w3.org/2000/svg">
<path d="M7.12427 2.23575L8.1106 1.92042C9.03552 1.62525 10.0237 2.10284 10.4197 3.036L11.208 4.895C11.5509 5.70442 11.3602 6.65684 10.7369 7.249L8.99977 8.89717C9.10702 9.8835 9.43885 10.8543 9.99435 11.8094C10.5219 12.7335 11.2294 13.5424 12.0752 14.1882L14.1615 13.4915C14.9517 13.2284 15.8134 13.5318 16.2974 14.2441L17.4276 15.9033C17.9914 16.7319 17.8896 17.8741 17.1902 18.5763L16.4413 19.3288C15.6951 20.0778 14.629 20.35 13.6436 20.042C11.3153 19.316 9.17669 17.1609 7.22419 13.5768C5.26894 9.98709 4.57869 6.94009 5.15435 4.43942C5.39635 3.38709 6.14527 2.54834 7.12427 2.23575Z" fill="#D7D7D7"/>
</svg>
