<svg width="41" height="41" viewBox="0 0 41 41" fill="none" xmlns="http://www.w3.org/2000/svg">
<path d="M30.3875 14.8943C30.1422 13.9518 29.4193 13.2097 28.5013 12.9578C26.8378 12.5 20.1667 12.5 20.1667 12.5C20.1667 12.5 13.4955 12.5 11.8319 12.9578C10.9139 13.2097 10.191 13.9518 9.9457 14.8943C9.5 16.6025 9.5 20.1667 9.5 20.1667C9.5 20.1667 9.5 23.7307 9.9457 25.439C10.191 26.3815 10.9139 27.1237 11.8319 27.3757C13.4955 27.8333 20.1667 27.8333 20.1667 27.8333C20.1667 27.8333 26.8378 27.8333 28.5013 27.3757C29.4193 27.1237 30.1422 26.3815 30.3875 25.439C30.8333 23.7307 30.8333 20.1667 30.8333 20.1667C30.8333 20.1667 30.8333 16.6025 30.3875 14.8943Z" fill="white"/>
<path d="M18.1665 23.5002V16.8335L23.4998 20.167L18.1665 23.5002Z" fill="#7D7D7D"/>
<circle cx="20.5" cy="20.5" r="20" stroke="#F5F5F5"/>
</svg>
